# xmcd CD database file
#
# Track frame offsets:
#	150
#	27340
#	44570
#	65712
#	89390
#	112907
#	131775
#	158682
#	184342
#	209295
#	230102
#	243572
#	256887
#	274992
#	289297
#	299692
#	318992
#	331650
#
# Disc length: 4630 seconds
#
# Revision: 0
# Processed by: cddbd v1.5.2PL0 Copyright (c) Steve Scherf et al.
# Submitted via: CDex 1.40Release
#
DISCID=1e121412
DTITLE=Nick Moss and The Flip Tops - Count Your Blessings
DYEAR=2003
DGENRE=Blues
TTITLE0=Heavy on My Mind
TTITLE1=Count Your Blessings
TTITLE2=Gold Digger
TTITLE3=Do You Know
TTITLE4=Hip Toss
TTITLE5=Porchlight
TTITLE6=I'm Mad
TTITLE7=So Tired
TTITLE8=Panic Attack
TTITLE9=Break Bad
TTITLE10=W-A-S-T-E-D
TTITLE11=Barrelhouse Woman
TTITLE12=Ain't Times Hard
TTITLE13=Hey Hey
TTITLE14=This Little Voice
TTITLE15=I Chose to Sing the Blues
TTITLE16=She Brought Life Back to the Dead
TTITLE17=Lightnin'
EXTD=YEAR: 2003 ID3G: 0
EXTT0=
EXTT1=
EXTT2=
EXTT3=
EXTT4=
EXTT5=
EXTT6=
EXTT7=
EXTT8=
EXTT9=
EXTT10=
EXTT11=
EXTT12=
EXTT13=
EXTT14=
EXTT15=
EXTT16=
EXTT17=
PLAYORDER=
